<?xml version="1.0" encoding="UTF-8" standalone="no"?>
<!-- Created with Inkscape (http://www.inkscape.org/) -->

<svg
   xmlns:dc="http://purl.org/dc/elements/1.1/"
   xmlns:cc="http://creativecommons.org/ns#"
   xmlns:rdf="http://www.w3.org/1999/02/22-rdf-syntax-ns#"
   xmlns:svg="http://www.w3.org/2000/svg"
   xmlns="http://www.w3.org/2000/svg"
   xmlns:sodipodi="http://sodipodi.sourceforge.net/DTD/sodipodi-0.dtd"
   xmlns:inkscape="http://www.inkscape.org/namespaces/inkscape"
   width="220.06691mm"
   height="171.69788mm"
   viewBox="0 0 220.06691 171.69788"
   version="1.1"
   id="svg2126"
   inkscape:version="0.92.4 (5da689c313, 2019-01-14)"
   sodipodi:docname="amical.svg">
  <defs
     id="defs2120" />
  <sodipodi:namedview
     id="base"
     pagecolor="#ffffff"
     bordercolor="#666666"
     borderopacity="1.0"
     inkscape:pageopacity="0.0"
     inkscape:pageshadow="2"
     inkscape:zoom="0.9899495"
     inkscape:cx="113.7035"
     inkscape:cy="255.16642"
     inkscape:document-units="mm"
     inkscape:current-layer="layer3"
     showgrid="false"
     inkscape:window-width="2400"
     inkscape:window-height="1284"
     inkscape:window-x="-9"
     inkscape:window-y="-9"
     inkscape:window-maximized="1"
     fit-margin-top="5"
     fit-margin-left="5"
     fit-margin-right="5"
     fit-margin-bottom="5" />
  <metadata
     id="metadata2123">
    <rdf:RDF>
      <cc:Work
         rdf:about="">
        <dc:format>image/svg+xml</dc:format>
        <dc:type
           rdf:resource="http://purl.org/dc/dcmitype/StillImage" />
        <dc:title></dc:title>
      </cc:Work>
    </rdf:RDF>
  </metadata>
  <g
     inkscape:label="Calque 1"
     inkscape:groupmode="layer"
     id="layer1"
     style="display:inline"
     transform="translate(405.7844,-105.80551)" />
  <g
     inkscape:groupmode="layer"
     id="layer2"
     inkscape:label="Calque 3"
     transform="translate(-13.046369,-1.5460589)">
    <path
       style="fill:#ffffff;fill-opacity:1;stroke:#000000;stroke-width:2.29999995;stroke-linecap:round;stroke-linejoin:round;stroke-miterlimit:4;stroke-dasharray:none;stroke-opacity:1"
       d="m 56.468552,8.8648407 32.40795,33.9795263 c 9.91357,9.193093 23.149488,5.464629 30.937068,13.382134 l 60.21171,63.116299 c 6.07715,6.88564 -8.47031,19.16381 -13.71682,13.26692 L 132.1531,98.044859 164.21426,130.70605 c 6.42986,6.94278 -8.14127,20.20829 -14.29892,12.89575 l -32.09048,-32.68317 29.27238,29.76903 c 9.8939,9.75383 -6.87597,22.53235 -14.56618,12.96258 l -29.18027,-30.00647 26.5386,27.03408 c 10.30765,10.85814 -6.66479,22.49926 -14.83346,12.82894 L 56.382162,103.74226 C 45.696932,91.783931 55.634092,84.550318 49.319852,76.65899 L 19.196322,45.45241 56.468552,8.8648407"
       id="path921"
       inkscape:connector-curvature="0"
       sodipodi:nodetypes="cccccccccccccccccc" />
  </g>
  <g
     inkscape:groupmode="layer"
     id="layer3"
     inkscape:label="Calque 2"
     style="display:inline"
     transform="translate(405.7844,-105.80551)">
    <path
       style="display:inline;fill:#ffffff;fill-opacity:1;stroke:#020202;stroke-width:2.29999995;stroke-linecap:round;stroke-linejoin:round;stroke-miterlimit:4;stroke-dasharray:none;stroke-opacity:1"
       d="m -243.15521,216.93328 5.67882,-5.29911 c 5.97208,-5.63084 -3.57165,-11.73794 0.98919,-16.19511 l 44.61975,-43.80012 -38.93198,-39.68348 -26.00019,26.27164 c -7.41557,7.17383 -23.29909,2.72963 -29.54808,2.79968 -4.56147,-0.64078 -27.58834,2.5399 -34.3793,8.87969 -7.13033,6.87715 -20.07573,23.40897 -28.50997,36.18254 8.53473,15.89167 40.68142,-13.72827 51.10067,-27.50868"
       id="path2818"
       inkscape:connector-curvature="0"
       sodipodi:nodetypes="cccccccccc" />
    <path
       style="fill:#ffffff;fill-opacity:1;stroke:#000000;stroke-width:2.29999995;stroke-linecap:round;stroke-linejoin:round;stroke-miterlimit:4;stroke-dasharray:none;stroke-opacity:1"
       d="m -357.34212,218.24335 c -1.1295,-2.87656 -0.35229,-5.06626 1.17411,-7.07112 l 19.87247,-19.83649 c 5.72784,-5.24377 18.60244,7.74982 14.29652,12.9004 l -23.65336,22.78473 20.81337,-19.9416 c 6.00389,-5.91014 19.46848,7.43054 13.5089,13.5089 l -22.44757,21.24486 21.13098,-19.92827 c 6.04123,-5.77921 19.96801,8.02367 13.44178,13.44178 l -22.30961,21.50781 20.60872,-19.80692 c 5.99294,-6.02633 18.96122,8.36594 13.77294,13.77295 l -11.83112,12.40228 c -5.229,6.5408 -8.31182,5.9477 -12.47355,5.37108 -4.50852,-1.95174 -8.50688,-5.12842 -10.07699,-11.73939 -5.88109,-2.01038 -11.71362,-5.01209 -12.26315,-15.02132 -6.81678,-1.47956 -11.56736,-5.5668 -11.8747,-14.81216 -5.78781,-1.07936 -8.20047,-2.35677 -11.68974,-8.77752"
       id="path933"
       inkscape:connector-curvature="0"
       sodipodi:nodetypes="ccccccccccccccccccc" />
  </g>
</svg>
